<?xml version="1.0" encoding="UTF-8" standalone="no"?>
<!-- Created with Inkscape (http://www.inkscape.org/) -->

<svg
   width="120"
   height="120"
   viewBox="0 0 120 120"
   version="1.1"
   id="svg1"
   xml:space="preserve"
   inkscape:version="1.4.3 (0d15f75, 2025-12-25)"
   sodipodi:docname="favicon2.svg"
   xmlns:inkscape="http://www.inkscape.org/namespaces/inkscape"
   xmlns:sodipodi="http://sodipodi.sourceforge.net/DTD/sodipodi-0.dtd"
   xmlns="http://www.w3.org/2000/svg"
   xmlns:svg="http://www.w3.org/2000/svg"><sodipodi:namedview
     id="namedview1"
     pagecolor="#505050"
     bordercolor="#eeeeee"
     borderopacity="1"
     inkscape:showpageshadow="0"
     inkscape:pageopacity="0"
     inkscape:pagecheckerboard="0"
     inkscape:deskcolor="#505050"
     inkscape:document-units="px"
     inkscape:zoom="2.5635533"
     inkscape:cx="34.132311"
     inkscape:cy="81.527463"
     inkscape:window-width="1768"
     inkscape:window-height="1077"
     inkscape:window-x="16"
     inkscape:window-y="47"
     inkscape:window-maximized="0"
     inkscape:current-layer="g4"
     showgrid="false" /><defs
     id="defs1"><clipPath
       id="e248131e8f"><path
         d="M 107,56 H 297 V 247 H 107 Z m 0,0"
         clip-rule="nonzero"
         id="path1" /></clipPath><clipPath
       id="0e12e29dc8"><path
         d="M 266.50781,53.453125 299.89453,86.839844 137.40625,249.32812 104.01953,215.94141 Z m 0,0"
         clip-rule="nonzero"
         id="path2" /></clipPath><clipPath
       id="5602fdf2a2"><path
         d="m 271.80859,58.75 22.78907,22.789062 c 2.92578,2.925782 2.92578,7.671876 0,10.597657 L 142.73828,243.99609 c -2.92578,2.92578 -7.67187,2.92578 -10.59766,0 l -22.78906,-22.78906 c -2.92578,-2.92578 -2.92578,-7.67187 0,-10.59766 L 261.21094,58.75 c 2.92578,-2.925781 7.67187,-2.925781 10.59765,0 z m 0,0"
         clip-rule="nonzero"
         id="path3" /></clipPath><clipPath
       id="bdf359c803"><path
         d="M 0,0 H 190 V 190.95312 H 0 Z m 0,0"
         clip-rule="nonzero"
         id="path4" /></clipPath><clipPath
       id="1343730801"><path
         d="M 159.50781,-2.546875 192.89453,30.839844 30.40625,193.32812 -2.980469,159.94141 Z m 0,0"
         clip-rule="nonzero"
         id="path5" /></clipPath><clipPath
       id="30b2dc8f25"><path
         d="m 164.80859,2.75 22.78907,22.789062 c 2.92578,2.925782 2.92578,7.671876 0,10.597657 L 35.738281,187.99609 c -2.925781,2.92578 -7.671875,2.92578 -10.597656,0 L 2.351562,165.20703 c -2.925781,-2.92578 -2.925781,-7.67187 0,-10.59766 L 154.21094,2.75 c 2.92578,-2.925781 7.67187,-2.925781 10.59765,0 z m 0,0"
         clip-rule="nonzero"
         id="path6" /></clipPath><clipPath
       id="942000fa40"><rect
         x="0"
         width="190"
         y="0"
         height="191"
         id="rect6" /></clipPath><clipPath
       id="ad11a3c48a"><path
         d="m 218,38 h 95 v 95 h -95 z m 0,0"
         clip-rule="nonzero"
         id="path7" /></clipPath><clipPath
       id="582a79ee13"><path
         d="m 276.83203,4.988281 68.79688,68.796875 -60.82032,60.820314 -68.79687,-68.796876 z m 0,0"
         clip-rule="nonzero"
         id="path8" /></clipPath><clipPath
       id="28e9ade990"><path
         d="m 312.32031,43.695312 -23.40234,85.816408 c -0.41016,1.49609 -1.58203,2.66015 -3.08203,3.05859 -1.4961,0.39844 -3.09375,-0.0312 -4.1875,-1.1289 L 219.31641,69.113281 c -1.09766,-1.097656 -1.52735,-2.695312 -1.12891,-4.191406 0.39844,-1.5 1.5625,-2.671875 3.05859,-3.078125 L 307.0625,38.4375 c 1.48437,-0.40625 3.07031,0.01563 4.15625,1.101562 1.08594,1.085938 1.50781,2.671876 1.10156,4.15625 z m 0,0"
         clip-rule="nonzero"
         id="path9" /></clipPath><clipPath
       id="adc7548278"><path
         d="M 0,0 H 94.824219 V 95 H 0 Z m 0,0"
         clip-rule="nonzero"
         id="path10" /></clipPath><clipPath
       id="73974644cc"><path
         d="M 58.832031,-33.011719 127.62891,35.785156 66.808594,96.605469 -1.988281,27.808594 Z m 0,0"
         clip-rule="nonzero"
         id="path11" /></clipPath><clipPath
       id="50815cf308"><path
         d="M 94.320312,5.695312 70.917969,91.511719 c -0.410157,1.496093 -1.582031,2.660156 -3.082031,3.058593 -1.496094,0.398438 -3.09375,-0.03125 -4.1875,-1.128906 L 1.316406,31.113281 C 0.21875,30.015625 -0.210938,28.417969 0.1875,26.921875 0.585938,25.421875 1.75,24.25 3.246094,23.84375 L 89.0625,0.4375 c 1.484375,-0.40625 3.070312,0.015625 4.15625,1.101562 1.085938,1.085938 1.507812,2.671876 1.101562,4.15625 z m 0,0"
         clip-rule="nonzero"
         id="path12" /></clipPath><clipPath
       id="e1191bb75d"><rect
         x="0"
         width="95"
         y="0"
         height="95"
         id="rect12" /></clipPath><clipPath
       id="4d73d4e2ab"><path
         d="M 23,120 H 129 V 227 H 23 Z m 0,0"
         clip-rule="nonzero"
         id="path13" /></clipPath><clipPath
       id="58c6e8ad8d"><path
         d="m 105.92969,117.875 25.65625,25.65625 -85.882815,85.88281 -25.65625,-25.65234 z m 0,0"
         clip-rule="nonzero"
         id="path14" /></clipPath><clipPath
       id="1b88002722"><path
         d="m 111.23047,123.17578 15.05859,15.05859 c 1.40235,1.40625 2.19141,3.3086 2.19141,5.29688 0,1.98828 -0.78906,3.89453 -2.19141,5.29687 l -75.281248,75.28125 c -1.402343,1.40235 -3.308593,2.19141 -5.296874,2.19141 -1.988282,0 -3.890626,-0.78906 -5.296876,-2.19141 L 25.355469,209.05078 c -1.40625,-1.40625 -2.195313,-3.3125 -2.195313,-5.30078 0,-1.98438 0.789063,-3.89063 2.195313,-5.29688 l 75.277341,-75.27734 c 1.40625,-1.40625 3.3125,-2.19531 5.29688,-2.19531 1.98828,0 3.89453,0.78906 5.30078,2.19531 z m 0,0"
         clip-rule="nonzero"
         id="path15" /></clipPath><clipPath
       id="2a127ae137"><path
         d="M 0,0.839844 H 105.6875 V 106.33203 H 0 Z m 0,0"
         clip-rule="nonzero"
         id="path16" /></clipPath><clipPath
       id="5b2ce33aa5"><path
         d="M 82.929688,-2.125 108.58594,23.53125 22.703125,109.41406 -2.953125,83.761719 Z m 0,0"
         clip-rule="nonzero"
         id="path17" /></clipPath><clipPath
       id="066a86ae2c"><path
         d="m 88.230469,3.175781 15.058591,15.058594 c 1.40235,1.40625 2.19141,3.308594 2.19141,5.296875 0,1.988281 -0.78906,3.894531 -2.19141,5.296875 L 28.007812,104.10938 c -1.402343,1.40234 -3.308593,2.1914 -5.296874,2.1914 -1.988282,0 -3.890626,-0.78906 -5.296876,-2.1914 L 2.355469,89.050781 C 0.949219,87.644531 0.160156,85.738281 0.160156,83.75 c 0,-1.984375 0.789063,-3.890625 2.195313,-5.296875 L 77.632812,3.175781 c 1.40625,-1.40625 3.3125,-2.195312 5.296876,-2.195312 1.988281,0 3.894531,0.789062 5.300781,2.195312 z m 0,0"
         clip-rule="nonzero"
         id="path18" /></clipPath><clipPath
       id="0ac584b8a1"><rect
         x="0"
         width="106"
         y="0"
         height="107"
         id="rect18" /></clipPath><clipPath
       id="762953b98a"><path
         d="m 3,176 h 70 v 71 H 3 Z m 0,0"
         clip-rule="nonzero"
         id="path19" /></clipPath><clipPath
       id="6e03cbd804"><path
         d="m 0.175781,199.29687 25.65625,-25.65625 50.007813,50.00782 -25.65625,25.65625 z m 0,0"
         clip-rule="nonzero"
         id="path20" /></clipPath><clipPath
       id="152a8b58a3"><path
         d="M 5.472656,193.99609 20.53125,178.9375 c 1.40625,-1.40234 3.3125,-2.19141 5.300781,-2.19141 1.984375,0 3.890625,0.78907 5.296875,2.19141 l 39.398438,39.39844 c 1.40625,1.40625 2.195312,3.3125 2.195312,5.29687 0,1.98828 -0.789062,3.89453 -2.195312,5.30078 l -15.058594,15.0586 c -1.40625,1.40625 -3.3125,2.19531 -5.300781,2.19531 -1.984375,0 -3.890625,-0.78906 -5.296875,-2.19531 L 5.472656,204.59375 c -1.402344,-1.40625 -2.191406,-3.3125 -2.191406,-5.29688 0,-1.98828 0.789062,-3.89453 2.191406,-5.30078 z m 0,0"
         clip-rule="nonzero"
         id="path21" /></clipPath><clipPath
       id="ff94659cac"><path
         d="M 0.0507812,0.703125 H 69.824219 v 69.53125 H 0.0507812 Z m 0,0"
         clip-rule="nonzero"
         id="path22" /></clipPath><clipPath
       id="0bec9e60ee"><path
         d="m -2.824219,23.296875 25.65625,-25.65625 50.007813,50.007813 -25.65625,25.65625 z m 0,0"
         clip-rule="nonzero"
         id="path23" /></clipPath><clipPath
       id="6b4ea5927a"><path
         d="M 2.472656,17.996094 17.53125,2.9375 c 1.40625,-1.402344 3.3125,-2.191406 5.300781,-2.191406 1.984375,0 3.890625,0.789062 5.296875,2.191406 l 39.398438,39.398438 c 1.40625,1.40625 2.195312,3.3125 2.195312,5.296874 0,1.988282 -0.789062,3.894532 -2.195312,5.300782 L 52.46875,67.992188 c -1.40625,1.40625 -3.3125,2.195312 -5.300781,2.195312 -1.984375,0 -3.890625,-0.789062 -5.296875,-2.195312 L 2.472656,28.59375 C 1.070312,27.1875 0.28125,25.28125 0.28125,23.296875 c 0,-1.988281 0.789062,-3.894531 2.191406,-5.300781 z m 0,0"
         clip-rule="nonzero"
         id="path24" /></clipPath><clipPath
       id="00c85b3501"><rect
         x="0"
         width="70"
         y="0"
         height="71"
         id="rect24" /></clipPath><clipPath
       id="88a3221ac7"><path
         d="m 78,101 h 71 v 70 H 78 Z m 0,0"
         clip-rule="nonzero"
         id="path25" /></clipPath><clipPath
       id="0797942ef0"><path
         d="M 75.625,123.64844 101.27734,97.992188 151.28516,148 125.63281,173.65625 Z m 0,0"
         clip-rule="nonzero"
         id="path26" /></clipPath><clipPath
       id="826c2ed06f"><path
         d="m 80.921875,118.35156 15.058594,-15.0625 c 1.40625,-1.40234 3.3125,-2.1914 5.296871,-2.1914 1.98829,0 3.89454,0.78906 5.30079,2.1914 l 39.39453,39.39844 c 1.40625,1.40625 2.19531,3.3125 2.19531,5.29687 0,1.98829 -0.78906,3.89454 -2.19531,5.30079 l -15.0586,15.05859 c -1.40234,1.40625 -3.30859,2.19531 -5.29687,2.19531 -1.98828,0 -3.89063,-0.78906 -5.29688,-2.19531 L 80.921875,128.94531 c -1.40625,-1.40625 -2.195313,-3.30859 -2.195313,-5.29687 0,-1.98828 0.789063,-3.89453 2.195313,-5.29688 z m 0,0"
         clip-rule="nonzero"
         id="path27" /></clipPath><clipPath
       id="5fd7802faf"><path
         d="M 0.578125,0 H 70.347656 V 69.710938 H 0.578125 Z m 0,0"
         clip-rule="nonzero"
         id="path28" /></clipPath><clipPath
       id="3e055e45a0"><path
         d="M -2.375,22.648438 23.277344,-3.007812 73.285156,47 47.632812,72.65625 Z m 0,0"
         clip-rule="nonzero"
         id="path29" /></clipPath><clipPath
       id="9f54d0ed21"><path
         d="m 2.921875,17.351562 15.058594,-15.0625 c 1.40625,-1.402343 3.3125,-2.1914058 5.296875,-2.1914058 1.988281,0 3.894531,0.7890628 5.300781,2.1914058 L 67.972656,41.6875 c 1.40625,1.40625 2.195313,3.3125 2.195313,5.296875 0,1.988281 -0.789063,3.894531 -2.195313,5.300781 L 52.914062,67.34375 c -1.402343,1.40625 -3.308593,2.195312 -5.296874,2.195312 -1.988282,0 -3.890626,-0.789062 -5.296876,-2.195312 L 2.921875,27.945312 c -1.40625,-1.40625 -2.195313,-3.308593 -2.195313,-5.296874 0,-1.988282 0.789063,-3.894532 2.195313,-5.296876 z m 0,0"
         clip-rule="nonzero"
         id="path30" /></clipPath><clipPath
       id="372c8e82db"><rect
         x="0"
         width="71"
         y="0"
         height="70"
         id="rect30" /></clipPath></defs><rect
     style="fill:#00bf63;fill-opacity:1;stroke-width:3.21379"
     id="rect1"
     width="120"
     height="120"
     x="0"
     y="0"
     rx="35" /><g
     inkscape:label="Layer 1"
     inkscape:groupmode="layer"
     id="layer1"><g
       id="g1"
       transform="matrix(0.28859348,0,0,0.28859348,15.384741,30.000001)"><g
         id="g4"><g
           id="g5"
           transform="translate(2.4450301,-1.5206056)"><g
             id="g3"
             transform="translate(0,1.5206003)"><g
               clip-path="url(#e248131e8f)"
               id="g38"
               style="fill:#ffffff"
               transform="translate(-3.28125,-38.285517)"><g
                 clip-path="url(#0e12e29dc8)"
                 id="g37"
                 style="fill:#ffffff"><g
                   clip-path="url(#5602fdf2a2)"
                   id="g36"
                   style="fill:#ffffff"><g
                     transform="translate(107,56)"
                     id="g35"
                     style="fill:#ffffff"><g
                       clip-path="url(#942000fa40)"
                       id="g34"
                       style="fill:#ffffff"><g
                         clip-path="url(#bdf359c803)"
                         id="g33"
                         style="fill:#ffffff"><g
                           clip-path="url(#1343730801)"
                           id="g32"
                           style="fill:#ffffff"><g
                             clip-path="url(#30b2dc8f25)"
                             id="g31"
                             style="fill:#ffffff"><path
                               fill="#ffffff"
                               d="M 159.50781,-2.546875 192.89453,30.839844 30.40625,193.32812 -2.980469,159.94141 Z m 0,0"
                               fill-opacity="1"
                               fill-rule="nonzero"
                               id="path31"
                               style="fill:#ffffff" /></g></g></g></g></g></g></g></g><g
               clip-path="url(#ad11a3c48a)"
               id="g46"
               style="fill:#ffffff"
               transform="translate(-3.28125,-38.285517)"><g
                 clip-path="url(#582a79ee13)"
                 id="g45"
                 style="fill:#ffffff"><g
                   clip-path="url(#28e9ade990)"
                   id="g44"
                   style="fill:#ffffff"><g
                     transform="translate(218,38)"
                     id="g43"
                     style="fill:#ffffff"><g
                       clip-path="url(#e1191bb75d)"
                       id="g42"
                       style="fill:#ffffff"><g
                         clip-path="url(#adc7548278)"
                         id="g41"
                         style="fill:#ffffff"><g
                           clip-path="url(#73974644cc)"
                           id="g40"
                           style="fill:#ffffff"><g
                             clip-path="url(#50815cf308)"
                             id="g39"
                             style="fill:#ffffff"><path
                               fill="#ffffff"
                               d="M 59.828125,-37.996094 132.86328,35.035156 69.050781,98.847656 -3.980469,25.8125 Z m 0,0"
                               fill-opacity="1"
                               fill-rule="nonzero"
                               id="path38"
                               style="fill:#ffffff" /></g></g></g></g></g></g></g></g></g><g
             id="g2"
             transform="translate(-4.890065,8.7587798)"><g
               clip-path="url(#4d73d4e2ab)"
               id="g54"
               style="fill:#ffffff"
               transform="matrix(1.19579,0,0,1.19579,-3.9236858,-93.721822)"><g
                 clip-path="url(#58c6e8ad8d)"
                 id="g53"
                 style="fill:#ffffff"><g
                   clip-path="url(#1b88002722)"
                   id="g52"
                   style="fill:#ffffff"><g
                     transform="translate(23,120)"
                     id="g51"
                     style="fill:#ffffff"><g
                       clip-path="url(#0ac584b8a1)"
                       id="g50"
                       style="fill:#ffffff"><g
                         clip-path="url(#2a127ae137)"
                         id="g49"
                         style="fill:#ffffff"><g
                           clip-path="url(#5b2ce33aa5)"
                           id="g48"
                           style="fill:#ffffff"><g
                             clip-path="url(#066a86ae2c)"
                             id="g47"
                             style="fill:#ffffff"><path
                               fill="#ffffff"
                               d="M 82.929688,-2.125 108.58594,23.53125 22.703125,109.41406 -2.953125,83.761719 Z m 0,0"
                               fill-opacity="1"
                               fill-rule="nonzero"
                               id="path46"
                               style="fill:#ffffff" /></g></g></g></g></g></g></g></g><g
               clip-path="url(#762953b98a)"
               id="g62"
               style="fill:#ffffff"
               transform="matrix(1.19579,0,0,1.19579,-3.9236858,-93.721822)"><g
                 clip-path="url(#6e03cbd804)"
                 id="g61"
                 style="fill:#ffffff"><g
                   clip-path="url(#152a8b58a3)"
                   id="g60"
                   style="fill:#ffffff"><g
                     transform="translate(3,176)"
                     id="g59"
                     style="fill:#ffffff"><g
                       clip-path="url(#00c85b3501)"
                       id="g58"
                       style="fill:#ffffff"><g
                         clip-path="url(#ff94659cac)"
                         id="g57"
                         style="fill:#ffffff"><g
                           clip-path="url(#0bec9e60ee)"
                           id="g56"
                           style="fill:#ffffff"><g
                             clip-path="url(#6b4ea5927a)"
                             id="g55"
                             style="fill:#ffffff"><path
                               fill="#ffffff"
                               d="m -2.824219,23.296875 25.65625,-25.65625 50.007813,50.007813 -25.65625,25.65625 z m 0,0"
                               fill-opacity="1"
                               fill-rule="nonzero"
                               id="path54"
                               style="fill:#ffffff" /></g></g></g></g></g></g></g></g><g
               clip-path="url(#88a3221ac7)"
               id="g70"
               style="fill:#ffffff"
               transform="matrix(1.19579,0,0,1.19579,-3.9236858,-93.721822)"><g
                 clip-path="url(#0797942ef0)"
                 id="g69"
                 style="fill:#ffffff"><g
                   clip-path="url(#826c2ed06f)"
                   id="g68"
                   style="fill:#ffffff"><g
                     transform="translate(78,101)"
                     id="g67"
                     style="fill:#ffffff"><g
                       clip-path="url(#372c8e82db)"
                       id="g66"
                       style="fill:#ffffff"><g
                         clip-path="url(#5fd7802faf)"
                         id="g65"
                         style="fill:#ffffff"><g
                           clip-path="url(#3e055e45a0)"
                           id="g64"
                           style="fill:#ffffff"><g
                             clip-path="url(#9f54d0ed21)"
                             id="g63"
                             style="fill:#ffffff"><path
                               fill="#ffffff"
                               d="M -2.375,22.648438 23.277344,-3.007812 73.285156,47 47.632812,72.65625 Z m 0,0"
                               fill-opacity="1"
                               fill-rule="nonzero"
                               id="path62"
                               style="fill:#ffffff" /></g></g></g></g></g></g></g></g></g></g></g></g></g></svg>
